<svg id="visual" viewBox="0 0 900 600" width="900" height="600" xmlns="http://www.w3.org/2000/svg" xmlns:xlink="http://www.w3.org/1999/xlink" version="1.1"><rect x="0" y="0" width="900" height="600" fill="#FFF"></rect><path d="M0 292L21.5 281.2C43 270.3 86 248.7 128.8 239.5C171.7 230.3 214.3 233.7 257.2 238.5C300 243.3 343 249.7 385.8 263.2C428.7 276.7 471.3 297.3 514.2 303.3C557 309.3 600 300.7 642.8 290.7C685.7 280.7 728.3 269.3 771.2 263C814 256.7 857 255.3 878.5 254.7L900 254L900 0L878.5 0C857 0 814 0 771.2 0C728.3 0 685.7 0 642.8 0C600 0 557 0 514.2 0C471.3 0 428.7 0 385.8 0C343 0 300 0 257.2 0C214.3 0 171.7 0 128.8 0C86 0 43 0 21.5 0L0 0Z" fill="#292b2c" stroke-linecap="round" stroke-linejoin="miter"></path></svg>